HIERARCHY
ROOT Hips
{
  OFFSET 54.2484 85.6925 16.1053
  CHANNELS 6 Xposition Yposition Zposition Zrotation Xrotation Yrotation
  JOINT spine
  {
    OFFSET 0 6.3926 0.367606
    CHANNELS 3 Zrotation Xrotation Yrotation
    JOINT spine1
    {
      OFFSET 0 9.17611 0
      CHANNELS 3 Zrotation Xrotation Yrotation
      JOINT spine2
      {
        OFFSET 0 8.79238 0
        CHANNELS 3 Zrotation Xrotation Yrotation
        JOINT Neck
        {
          OFFSET 0 22.5737 1.07624
          CHANNELS 3 Zrotation Xrotation Yrotation
          JOINT Head
          {
            OFFSET 0 6.82011 0
            CHANNELS 3 Zrotation Xrotation Yrotation
            End Site
            {
              OFFSET 0 16.5085 -5.44427
            }
          }
        }
        JOINT RightShoulder
        {
          OFFSET -3.70221 9.49509 -0.515508
          CHANNELS 3 Zrotation Xrotation Yrotation
          JOINT RightArm
          {
            OFFSET 0 12.4537 0
            CHANNELS 3 Zrotation Xrotation Yrotation
            JOINT RightArmRoll
            {
              OFFSET 0 6.28686 0
              CHANNELS 3 Zrotation Xrotation Yrotation
              JOINT RightForeArm
              {
                OFFSET 0 18.3114 0
                CHANNELS 3 Zrotation Xrotation Yrotation
                JOINT RightForeArmRoll
                {
                  OFFSET 0 7.05482 0
                  CHANNELS 3 Zrotation Xrotation Yrotation
                  JOINT RightHand
                  {
                    OFFSET 0 14.1575 0
                    CHANNELS 3 Zrotation Xrotation Yrotation
                    End Site
                    {
                      OFFSET 0 0 0
                    }
                  }
                }
              }
            }
          }
        }
        JOINT LeftShoulder
        {
          OFFSET 3.70221 9.49509 -0.515508
          CHANNELS 3 Zrotation Xrotation Yrotation
          JOINT LeftArm
          {
            OFFSET 0 12.4537 0
            CHANNELS 3 Zrotation Xrotation Yrotation
            JOINT LeftArmRoll
            {
              OFFSET 0 6.28686 0
              CHANNELS 3 Zrotation Xrotation Yrotation
              JOINT LeftForeArm
              {
                OFFSET 0 18.3114 0
                CHANNELS 3 Zrotation Xrotation Yrotation
                JOINT LeftForeArmRoll
                {
                  OFFSET 0 7.05482 0
                  CHANNELS 3 Zrotation Xrotation Yrotation
                  JOINT LeftHand
                  {
                    OFFSET 0 14.1575 0
                    CHANNELS 3 Zrotation Xrotation Yrotation
                    End Site
                    {
                      OFFSET 0 0 0
                    }
                  }
                }
              }
            }
          }
        }
      }
    }
  }
  JOINT RightUpLeg
  {
    OFFSET -5.66616 -1.03903 -0.87161
    CHANNELS 3 Zrotation Xrotation Yrotation
    JOINT RightUpLegRoll
    {
      OFFSET 0 16.6005 0
      CHANNELS 3 Zrotation Xrotation Yrotation
      JOINT RightLeg
      {
        OFFSET 0 -20.5572 0
        CHANNELS 3 Zrotation Xrotation Yrotation
        JOINT RightLegRoll
        {
          OFFSET 0 20.6244 0
          CHANNELS 3 Zrotation Xrotation Yrotation
          JOINT RightFoot
          {
            OFFSET 0 17.1664 0
            CHANNELS 3 Zrotation Xrotation Yrotation
            JOINT RightToeBase
            {
              OFFSET 0 14.3502 0
              CHANNELS 3 Zrotation Xrotation Yrotation
              End Site
              {
                OFFSET 0.00608252 6.94971 -0.801061
              }
            }
          }
        }
      }
    }
  }
  JOINT LeftUpLeg
  {
    OFFSET 5.66616 -1.03903 -0.87161
    CHANNELS 3 Zrotation Xrotation Yrotation
    JOINT LeftUpLegRoll
    {
      OFFSET 0 16.6006 0
      CHANNELS 3 Zrotation Xrotation Yrotation
      JOINT LeftLeg
      {
        OFFSET 0 20.5571 0
        CHANNELS 3 Zrotation Xrotation Yrotation
        JOINT LeftLegRoll
        {
          OFFSET 0 20.8151 0
          CHANNELS 3 Zrotation Xrotation Yrotation
          JOINT LeftFoot
          {
            OFFSET 0 16.9757 0
            CHANNELS 3 Zrotation Xrotation Yrotation
            JOINT LeftToeBase
            {
              OFFSET 0 14.3502 0
              CHANNELS 3 Zrotation Xrotation Yrotation
              End Site
              {
                OFFSET -0.0272592 6.94971 -0.80106
              }
            }
          }
        }
      }
    }
  }
}
MOTION
Frames: 8
Frame Time: 0.00208333
53.8988 85.6946 16.1248 -1.99159 -2.79416 -5.23788 -0.19197 -1.35041 -0.0590932 -0.388635 1.30486 -0.082696 -0.387832 2.94992 -0.0762099 7.04892 11.6536 0.227945 -2.9615 9.35225 2.42284 27.656 -15.6365 -12.3741 64.0246 41.0015 54.7873 -1.01466e-005 6.06067e-008 -6.42491e-006 171.99 60.7628 -162.756 -3.98986e-006 -3.4161e-006 -3.00555 8.0289 -4.95144 0.697684 -56.055 1.61553 -1.42701 -110.365 14.3615 -1.52985 -8.22915e-007 8.29972e-008 2.85742e-006 -10.1843 4.24913 0.921367 1.00233e-005 -1.31497e-006 3 -8.02896 -4.95145 -0.697687 175.737 -1.78671 1.26741 180 7.01537e-015 178.88 176.096 5.487 179.818 3.98723e-007 3.14543e-006 0.0536038 -18.3647 67.6094 19.2133 8.13649 25.2327 -3.48774 -173.176 -1.96102 -0.422672 4.54188e-006 -4.6773e-006 -1.09787 -0.597158 -8.218 0.538167 -1.35372e-006 2.67157e-006 -0.153235 19.9078 70.4151 -21.7231 -8.13657 25.2338 3.48625 
53.8993 85.6941 16.1245 -2.00011 -2.79712 -5.24358 -0.19248 -1.35002 -0.0598611 -0.388824 1.3052 -0.0834524 -0.388009 2.95026 -0.0769566 7.03829 11.6658 0.229121 -2.94298 9.34599 2.42135 27.6615 -15.6111 -12.3447 64.1042 41.0103 54.5752 -1.01466e-005 6.06066e-008 -6.42491e-006 172.04 60.8079 -162.891 -3.98986e-006 -3.4161e-006 -3.00555 8.0289 -4.95144 0.697684 -56.0489 1.60606 -1.42181 -110.376 14.3616 -1.51221 -8.22915e-007 8.29972e-008 2.85742e-006 -10.1943 4.25374 0.921332 1.00233e-005 -1.31497e-006 3 -8.02896 -4.95145 -0.697687 175.752 -1.791 1.25605 180 7.01537e-015 178.88 176.104 5.48715 179.817 3.98723e-007 3.14543e-006 0.0536069 -18.365 67.6098 19.2135 8.13649 25.2327 -3.48774 -173.165 -1.96187 -0.430676 4.54188e-006 -4.6773e-006 -1.09758 -0.598554 -8.22672 0.538396 -1.35372e-006 2.67157e-006 -0.153245 19.9072 70.4197 -21.7272 -8.13657 25.2338 3.48625 
53.896 85.6951 16.1252 -2.00878 -2.80002 -5.24958 -0.192994 -1.34963 -0.0605979 -0.389027 1.30553 -0.0842599 -0.388201 2.95059 -0.0777554 7.02744 11.6778 0.230566 -2.92394 9.33997 2.42007 27.6694 -15.5846 -12.3139 64.1827 41.018 54.3685 -1.01466e-005 6.06067e-008 -6.42491e-006 172.086 60.8599 -163.021 -3.98986e-006 -3.4161e-006 -3.00555 8.0289 -4.95144 0.697684 -56.0425 1.59615 -1.41636 -110.386 14.3617 -1.49504 -8.22915e-007 8.29972e-008 2.85742e-006 -10.2037 4.25858 0.921417 1.00233e-005 -1.31497e-006 3 -8.02896 -4.95145 -0.697687 175.767 -1.79511 1.24474 180 7.01537e-015 178.88 176.112 5.48726 179.817 3.98723e-007 3.14543e-006 0.05361 -18.3653 67.6102 19.2138 8.13649 25.2327 -3.48774 -173.153 -1.96255 -0.438863 4.54188e-006 -4.6773e-006 -1.09727 -0.6001 -8.23596 0.538625 -1.35372e-006 2.67157e-006 -0.153255 19.907 70.4246 -21.7316 -8.13657 25.2338 3.48625 
53.8977 85.6959 16.1335 -2.01757 -2.80279 -5.25588 -0.193512 -1.34924 -0.0612956 -0.389255 1.30583 -0.0851246 -0.388418 2.95089 -0.0786128 7.01638 11.6894 0.232308 -2.90439 9.33427 2.41902 27.6799 -15.557 -12.2817 64.2596 41.0246 54.1682 -1.01466e-005 6.06066e-008 -6.42491e-006 172.128 60.9183 -163.144 -3.98986e-006 -3.4161e-006 -3.00555 8.0289 -4.95144 0.697684 -56.0359 1.58579 -1.41063 -110.397 14.3619 -1.47845 -8.22915e-007 8.29972e-008 2.85742e-006 -10.2126 4.26376 0.921651 1.00233e-005 -1.31497e-006 3 -8.02896 -4.95145 -0.697687 175.782 -1.79893 1.23355 180 7.01537e-015 178.88 176.121 5.48729 179.816 3.98723e-007 3.14543e-006 0.053613 -18.3657 67.6106 19.214 8.13649 25.2327 -3.48774 -173.14 -1.96298 -0.447235 4.54188e-006 -4.6773e-006 -1.09696 -0.60182 -8.24576 0.538852 -1.35372e-006 2.67157e-006 -0.153266 19.9073 70.43 -21.7365 -8.13657 25.2338 3.48625 
53.9002 85.6959 16.1338 -2.02646 -2.80538 -5.26248 -0.194035 -1.34888 -0.0619463 -0.389519 1.30608 -0.0860529 -0.38867 2.95113 -0.0795352 7.00515 11.7007 0.234374 -2.88434 9.32897 2.41823 27.6931 -15.5282 -12.2478 64.3345 41.0301 53.9755 -1.01466e-005 6.06066e-008 -6.42491e-006 172.165 60.9829 -163.262 -3.98986e-006 -3.4161e-006 -3.00555 8.0289 -4.95144 0.697684 -56.0291 1.575 -1.40464 -110.408 14.3621 -1.4626 -8.22915e-007 8.29972e-008 2.85742e-006 -10.2206 4.26938 0.922064 1.00233e-005 -1.31497e-006 3 -8.02896 -4.95145 -0.697687 175.796 -1.80241 1.22252 180 7.01537e-015 178.88 176.128 5.48722 179.815 3.98723e-007 3.14543e-006 0.0536161 -18.366 67.611 19.2141 8.13649 25.2327 -3.48774 -173.128 -1.96307 -0.455796 4.54188e-006 -4.6773e-006 -1.09664 -0.603738 -8.25618 0.539075 -1.35372e-006 2.67157e-006 -0.153278 19.9081 70.4357 -21.7419 -8.13657 25.2338 3.48625 
53.8908 85.6959 16.1281 -2.03544 -2.80772 -5.26937 -0.194564 -1.34853 -0.062542 -0.389827 1.30625 -0.0870511 -0.388967 2.9513 -0.0805291 6.99377 11.7116 0.23679 -2.86381 9.32415 2.41775 27.7092 -15.4981 -12.2123 64.4069 41.0345 53.7914 -1.01466e-005 6.06067e-008 -6.42491e-006 172.197 61.0531 -163.371 -3.98986e-006 -3.4161e-006 -3.00555 8.0289 -4.95144 0.697684 -56.0222 1.56375 -1.39837 -110.42 14.3622 -1.4476 -8.22915e-007 8.29972e-008 2.85742e-006 -10.2278 4.27554 0.922684 1.00233e-005 -1.31497e-006 3 -8.02896 -4.95145 -0.697687 175.811 -1.80544 1.21171 180 7.01537e-015 178.88 176.136 5.48708 179.815 3.98723e-007 3.14543e-006 0.0536192 -18.3664 67.6115 19.2142 8.13649 25.2327 -3.48774 -173.116 -1.96275 -0.464547 4.54188e-006 -4.6773e-006 -1.09631 -0.605879 -8.2673 0.539295 -1.35372e-006 2.67157e-006 -0.153292 19.9096 70.4419 -21.7479 -8.13657 25.2338 3.48625 
53.8931 85.6978 16.1316 -2.04462 -2.80988 -5.27674 -0.195112 -1.3482 -0.0630906 -0.390145 1.30634 -0.0881661 -0.389274 2.95139 -0.0816422 6.98193 11.7225 0.239706 -2.8423 9.31957 2.41765 27.7283 -15.4665 -12.1747 64.4778 41.0379 53.6132 -1.01466e-005 6.06066e-008 -6.42491e-006 172.225 61.1307 -163.475 -3.98986e-006 -3.4161e-006 -3.00555 8.0289 -4.95144 0.697684 -56.015 1.55196 -1.3918 -110.431 14.3623 -1.43324 -8.22915e-007 8.29972e-008 2.85742e-006 -10.2343 4.28214 0.923517 1.00233e-005 -1.31497e-006 3 -8.02896 -4.95145 -0.697687 175.826 -1.8081 1.20089 180 7.01537e-015 178.88 176.143 5.48682 179.814 3.98723e-007 3.14543e-006 0.0536223 -18.3667 67.6119 19.2143 8.13649 25.2327 -3.48774 -173.103 -1.96212 -0.473664 4.54188e-006 -4.6773e-006 -1.09596 -0.608349 -8.27921 0.539496 -1.35372e-006 2.67157e-006 -0.153306 19.9118 70.4487 -21.7545 -8.13657 25.2338 3.48625 
53.8893 85.6978 16.1257 -2.05414 -2.81199 -5.28472 -0.195686 -1.34786 -0.063607 -0.390433 1.30637 -0.0894252 -0.389551 2.95142 -0.0829022 6.96938 11.7337 0.2432 -2.81942 9.31496 2.41793 27.7501 -15.4331 -12.1348 64.5483 41.0406 53.4377 -1.01466e-005 6.06067e-008 -6.42491e-006 172.25 61.2177 -163.577 -3.98986e-006 -3.4161e-006 -3.00555 8.0289 -4.95144 0.697684 -56.0072 1.53953 -1.38488 -110.443 14.3623 -1.4192 -8.22915e-007 8.29972e-008 2.85742e-006 -10.2404 4.28898 0.924532 1.00233e-005 -1.31497e-006 3 -8.02896 -4.95145 -0.697687 175.841 -1.81055 1.18982 180 7.01537e-015 178.88 176.151 5.4865 179.814 3.98723e-007 3.14543e-006 0.0536253 -18.3671 67.6123 19.2143 8.13649 25.2327 -3.48774 -173.091 -1.96137 -0.483272 4.54188e-006 -4.6773e-006 -1.09559 -0.611198 -8.29196 0.539671 -1.35372e-006 2.67157e-006 -0.153319 19.9148 70.4561 -21.7618 -8.13657 25.2338 3.48625 
